<svg xmlns="http://www.w3.org/2000/svg" viewBox="0 0 248 248"><defs><style>.cls-1{fill:none;stroke:#fff;stroke-miterlimit:10;stroke-width:3px;}.cls-2{fill:#fff;}</style></defs><g id="Layer_2" data-name="Layer 2"><g id="Layer_1-2" data-name="Layer 1"><circle class="cls-1" cx="124" cy="124" r="122.5"/><line class="cls-1" x1="124" y1="1" x2="124" y2="246"/><path class="cls-2" d="M76.6,151.17l-1.54-10.28H64.13l-1.54,10.28H54.41l9.07-56.69h13l9.07,56.69Zm-2.75-18-4.3-28.67-4.29,28.67Z"/><path class="cls-2" d="M187.37,107.52v2c0,5.84-1.78,9.56-5.75,11.42,4.78,1.87,6.64,6.16,6.64,12.15v4.62c0,8.75-4.62,13.44-13.53,13.44h-14V94.48h13.45C183.4,94.48,187.37,98.77,187.37,107.52Zm-17.74,10h3.49c3.32,0,5.34-1.46,5.34-6v-3.16c0-4-1.38-5.83-4.53-5.83h-4.3Zm0,25.52h5.1c3,0,4.62-1.38,4.62-5.59v-4.94c0-5.27-1.7-6.89-5.75-6.89h-4Z"/></g></g></svg>