<svg xmlns="http://www.w3.org/2000/svg" viewBox="0 0 248 248"><defs><style>.cls-1{fill:none;stroke:#fff;stroke-miterlimit:10;stroke-width:3px;}.cls-2{fill:#fff;}</style></defs><g id="Layer_2" data-name="Layer 2"><g id="Layer_1-2" data-name="Layer 1"><circle class="cls-1" cx="124" cy="124" r="122.5"/><line class="cls-1" x1="124" y1="1" x2="124" y2="246"/><line class="cls-1" x1="1.5" y1="123.5" x2="246.5" y2="123.5"/><path class="cls-2" d="M76.88,92.13l-1.14-7.62h-8.1L66.5,92.13H60.44l6.72-42h9.66l6.72,42Zm-2-13.32L71.66,57.57,68.48,78.81Z"/><path class="cls-2" d="M185.88,59.79v1.5c0,4.32-1.32,7.08-4.26,8.46,3.54,1.38,4.92,4.56,4.92,9v3.42c0,6.48-3.42,10-10,10H166.14v-42h10C182.94,50.13,185.88,53.31,185.88,59.79Zm-13.14,7.44h2.58c2.46,0,4-1.08,4-4.44V60.45c0-3-1-4.32-3.36-4.32h-3.18Zm0,18.9h3.78c2.22,0,3.42-1,3.42-4.14V78.33c0-3.9-1.26-5.1-4.26-5.1h-2.94Z"/><path class="cls-2" d="M81.32,185.05c0,6.72-3.36,10.56-9.84,10.56s-9.84-3.84-9.84-10.56V163.21c0-6.72,3.36-10.56,9.84-10.56s9.84,3.84,9.84,10.56v4.08H75.08v-4.5c0-3-1.32-4.14-3.42-4.14s-3.42,1.14-3.42,4.14v22.68c0,3,1.32,4.08,3.42,4.08s3.42-1.08,3.42-4.08v-6h6.24Z"/><path class="cls-2" d="M176.58,153.13c6.6,0,9.84,3.66,9.84,10.38v21.24c0,6.72-3.24,10.38-9.84,10.38H166.14v-42Zm-3.84,36h3.72c2.1,0,3.36-1.08,3.36-4.08V163.21c0-3-1.26-4.08-3.36-4.08h-3.72Z"/></g></g></svg>